# xmcd
#
# Track frame offsets:
#	150
#	16646
#	33317
#	50724
#	73913
#	90073
#	101928
#	117547
#	140196
#	154825
#	170906
#	184384
#
# Disc length: 2679 seconds
#
# Revision: 1
# Processed by: cddbd v1.5.2PL0 Copyright (c) Steve Scherf et al.
# Submitted via: audiograbber 1.83.01
#
DISCID=ae0a750c
DTITLE=Mojo Blues Band - Alligator Walk
DYEAR=1991
DGENRE=Blues
TTITLE0=Alligator Walk
TTITLE1=Love you too much
TTITLE2=Wintertime is coming
TTITLE3=Blues in the night
TTITLE4=Lonesome house
TTITLE5=My old Serenader
TTITLE6=My tiny thing
TTITLE7=Black silk
TTITLE8=Louisiana stroll
TTITLE9=Burnt child
TTITLE10=Found a new home
TTITLE11=Down in the alley
EXTD=
EXTT0=
EXTT1=
EXTT2=
EXTT3=
EXTT4=
EXTT5=
EXTT6=
EXTT7=
EXTT8=
EXTT9=
EXTT10=
EXTT11=
PLAYORDER=
